solid ascii
 facet normal 0 1 0
  outer loop
   vertex 3 1 0
   vertex 0.6 1 0
   vertex 0.6 1 0.2
  endloop
 endfacet
 facet normal -0 1 0
  outer loop
   vertex 3 1 0
   vertex 0.6 1 0.2
   vertex 3 1 0.2
  endloop
 endfacet
 facet normal 0 -1 0
  outer loop
   vertex 0.6 0 2.22045e-16
   vertex 3 0 2.22045e-16
   vertex 0.6 0 0.2
  endloop
 endfacet
 facet normal 0 -1 0
  outer loop
   vertex 0.6 0 0.2
   vertex 3 0 2.22045e-16
   vertex 3 0 0.2
  endloop
 endfacet
 facet normal 0 0 1
  outer loop
   vertex 0.6 0 0.2
   vertex 3 0 0.2
   vertex 0.6 1 0.2
  endloop
 endfacet
 facet normal 0 -0 1
  outer loop
   vertex 0.6 1 0.2
   vertex 3 0 0.2
   vertex 3 1 0.2
  endloop
 endfacet
 facet normal -1 0 0
  outer loop
   vertex 0.6 0 2.22045e-16
   vertex 0.6 0 0.2
   vertex 0.6 1 0
  endloop
 endfacet
 facet normal -1 0 0
  outer loop
   vertex 0.6 1 0
   vertex 0.6 0 0.2
   vertex 0.6 1 0.2
  endloop
 endfacet
 facet normal 1 0 0
  outer loop
   vertex 3 1 0
   vertex 3 1 0.2
   vertex 3 0 0.2
  endloop
 endfacet
 facet normal 1 0 0
  outer loop
   vertex 3 1 0
   vertex 3 0 0.2
   vertex 3 0 2.22045e-16
  endloop
 endfacet
 facet normal -0 -2.22045e-16 -1
  outer loop
   vertex 0.6 1 0
   vertex 3 1 0
   vertex 3 0 2.22045e-16
  endloop
 endfacet
 facet normal -0 -2.22045e-16 -1
  outer loop
   vertex 0.6 1 0
   vertex 3 0 2.22045e-16
   vertex 0.6 0 2.22045e-16
  endloop
 endfacet
endsolid
